<?xml version="1.0" encoding="UTF-8"?>
<svg width="30px" height="40px" viewBox="0 0 30 40" version="1.1" xmlns="http://www.w3.org/2000/svg" xmlns:xlink="http://www.w3.org/1999/xlink">
    <!-- Generator: Sketch 50.2 (55047) - http://www.bohemiancoding.com/sketch -->
    <title>pin copy 5</title>
    <desc>Created with Sketch.</desc>
    <defs></defs>
    <g id="Page-1" stroke="none" stroke-width="1" fill="none" fill-rule="evenodd">
        <g id="Interna-Sucursales" transform="translate(-630.000000, -730.000000)">
            <g id="pin" transform="translate(630.000000, 730.000000)">
                <g id="placeholder-(1)">
                    <path d="M15.0120321,0 L15.0120321,8.57494867 C18.5502674,8.57494867 21.4291444,11.5219713 21.4291444,15.1457906 C21.4291444,18.7687885 18.5502674,21.7166324 15.0120321,21.7166324 L15.0120321,39.9425051 L26.757754,24.8213552 C28.8665775,22.0903491 29.9815508,18.8082136 29.9815508,15.3281314 C29.9815508,6.87638604 23.2660428,0 15.0120321,0 Z" id="Shape" fill="#004893" fill-rule="nonzero"></path>
                    <path d="M21.4291444,15.1457906 C21.4291444,11.5219713 18.5502674,8.57494867 15.0120321,8.57494867 L15.0120321,21.7166324 C18.5502674,21.7166324 21.4291444,18.7687885 21.4291444,15.1457906 Z" id="Shape" fill="#D8D7DA" fill-rule="nonzero"></path>
                    <path d="M8.59491979,15.1457906 C8.59491979,11.5219713 11.4737968,8.57494867 15.0120321,8.57494867 L15.0120321,0 C6.75802139,0 0.042513369,6.87638604 0.042513369,15.3281314 C0.042513369,18.8082136 1.15748663,22.0903491 3.26951872,24.8246407 L15.0120321,39.9425051 L15.0120321,21.7166324 C11.4737968,21.7166324 8.59491979,18.7687885 8.59491979,15.1457906 Z" id="Shape" fill="#0079FB" fill-rule="nonzero"></path>
                    <path d="M8.59491979,15.1457906 C8.59491979,18.7687885 11.4737968,21.7166324 15.0120321,21.7166324 L15.0120321,8.57494867 C11.4737968,8.57494867 8.59491979,11.5219713 8.59491979,15.1457906 Z" id="Shape" fill="#FFFFFF" fill-rule="nonzero"></path>
                </g>
            </g>
        </g>
    </g>
</svg>