<svg height="512pt" viewBox="-16 0 511 512" width="512pt" xmlns="http://www.w3.org/2000/svg"><path d="m70.5 380c-5.519531 0-10 4.480469-10 10s4.480469 10 10 10 10-4.480469 10-10-4.480469-10-10-10zm0 0"/><path d="m170.5 80h-80c-16.542969 0-30 13.457031-30 30 0 5.523438 4.476562 10 10 10s10-4.476562 10-10c0-5.515625 4.484375-10 10-10h80c16.542969 0 30-13.457031 30-30 0-16.574219-13.425781-30-30-30h-80c-5.515625 0-10-4.484375-10-10 0-5.519531 4.480469-10 10-10h60c5.523438 0 10-4.476562 10-10s-4.476562-10-10-10h-60c-16.574219 0-30 13.425781-30 30 0 16.542969 13.457031 30 30 30h80c5.523438 0 10 4.480469 10 10 0 5.515625-4.484375 10-10 10zm0 0"/><path d="m230.5 300h-60c-5.523438 0-10 4.476562-10 10v40c0 5.523438 4.476562 10 10 10h60c5.523438 0 10-4.476562 10-10v-40c0-5.523438-4.476562-10-10-10zm-10 40h-40v-20h40zm0 0"/><path d="m230.5 380h-60c-5.523438 0-10 4.476562-10 10v40c0 5.523438 4.476562 10 10 10h60c5.523438 0 10-4.476562 10-10v-40c0-5.523438-4.476562-10-10-10zm-10 40h-40v-20h40zm0 0"/><path d="m370.5 360h60c5.523438 0 10-4.476562 10-10v-40c0-5.523438-4.476562-10-10-10h-60c-5.523438 0-10 4.476562-10 10v40c0 5.523438 4.476562 10 10 10zm10-40h40v20h-40zm0 0"/><path d="m370.5 440h60c5.523438 0 10-4.476562 10-10v-40c0-5.523438-4.476562-10-10-10h-60c-5.523438 0-10 4.476562-10 10v40c0 5.523438 4.476562 10 10 10zm10-40h40v20h-40zm0 0"/><path d="m260.5 310v40c0 5.523438 4.476562 10 10 10h60c5.523438 0 10-4.476562 10-10v-40c0-5.523438-4.476562-10-10-10h-60c-5.523438 0-10 4.476562-10 10zm20 10h40v20h-40zm0 0"/><path d="m330.5 380h-60c-5.523438 0-10 4.476562-10 10v40c0 5.523438 4.476562 10 10 10h60c5.523438 0 10-4.476562 10-10v-40c0-5.523438-4.476562-10-10-10zm-10 40h-40v-20h40zm0 0"/><path d="m476.46875 201.976562c-2.535156-1.886718-5.8125-2.460937-8.84375-1.554687l-167.125 50.136719v-40.558594c0-3.234375-1.566406-6.269531-4.203125-8.148438-2.636719-1.875-6.019531-2.359374-9.074219-1.296874l-160.667968 55.742187c-1.273438-22.414063-4.679688-82.398437-6.070313-106.863281-.300781-5.292969-4.683594-9.433594-9.984375-9.433594h-80c-5.304688 0-9.683594 4.140625-9.984375 9.433594-.195313 3.414062.945313-16.699219-20 352-.15625 2.746094.828125 5.433594 2.714844 7.433594 1.890625 2 4.519531 3.132812 7.269531 3.132812h460c5.523438 0 10-4.476562 10-10v-292c0-3.160156-1.496094-6.136719-4.03125-8.023438zm-370.867188 38.023438 1.136719 20h-72.472656l1.136719-20zm-1.136718-20h-67.925782l1.136719-20h65.652344zm-71.335938 60h74.746094l1.132812 20h-77.015624zm67.921875-120 1.136719 20h-63.375l1.136719-20zm-20.550781 332v-62c0-5.523438-4.476562-10-10-10s-10 4.476562-10 10v62h-39.414062l9.769531-172h79.289062l9.769531 172zm380 0h-320.550781c-.542969-9.554688-11.664063-205.273438-12.191407-214.5625.214844-.195312.421876-.394531.621094-.605469l152.121094-52.777343v39.945312c0 3.160156 1.496094 6.136719 4.03125 8.023438 2.535156 1.886718 5.816406 2.464843 8.84375 1.554687l167.125-50.136719zm0 0"/></svg>