<svg width="70" height="70" viewBox="0 0 70 70" fill="none" xmlns="http://www.w3.org/2000/svg">
<circle cx="35" cy="35" r="35" fill="#96902D"/>
<path d="M43.0697 23.8807L42.9868 24.3502H43.4636H44.4102C44.699 24.3525 44.9839 24.4183 45.2445 24.543C45.5024 24.6663 45.7302 24.8442 45.9124 25.0643L52.3633 33.9245L50.6538 43.8705L50.6538 43.8705L50.6529 43.8758C50.5749 44.3696 50.3255 44.8202 49.9486 45.1485C49.5725 45.476 49.0934 45.661 48.5949 45.6714H47.0188H46.7219L46.6359 45.9555C46.317 47.0096 45.6674 47.933 44.7831 48.5893C43.8988 49.2456 42.8268 49.6 41.7255 49.6C40.6243 49.6 39.5523 49.2456 38.668 48.5893C37.7837 47.933 37.134 47.0096 36.8151 45.9555L36.7291 45.6714H36.4322H32.7981H32.5012L32.4152 45.9555C32.0963 47.0096 31.4466 47.933 30.5623 48.5893C29.678 49.2456 28.606 49.6 27.5048 49.6C26.4035 49.6 25.3315 49.2456 24.4472 48.5893C23.5629 47.933 22.9133 47.0096 22.5944 45.9555L22.5084 45.6714H22.2115H20.2398C19.9812 45.6668 19.7265 45.6069 19.4929 45.4956C19.2584 45.384 19.0507 45.2232 18.8837 45.0242L18.8785 45.0179L18.8729 45.0119C18.6916 44.813 18.5569 44.5762 18.4785 44.3187C18.4008 44.0634 18.3805 43.7941 18.4189 43.53L19.0493 40.1414C19.0494 40.1412 19.0494 40.141 19.0495 40.1408C19.107 39.8373 19.2813 39.5685 19.535 39.392L19.3065 39.0637L19.535 39.392C19.7877 39.2162 20.0991 39.1461 20.4028 39.1967C20.705 39.2549 20.9726 39.4289 21.1484 39.6816C21.3249 39.9353 21.3948 40.248 21.3432 40.5526C21.3432 40.5528 21.3432 40.5529 21.3431 40.5531L20.9483 42.8432L20.8676 43.3112H21.3425H22.2115H22.5084L22.5944 43.0271C22.9133 41.973 23.5629 41.0496 24.4472 40.3932C25.3315 39.7369 26.4035 39.3826 27.5048 39.3826C28.606 39.3826 29.678 39.7369 30.5623 40.3932C31.4466 41.0496 32.0963 41.973 32.4152 43.0271L32.5012 43.3112H32.7981H36.4322H36.7358L36.8175 43.0189C36.9712 42.4688 37.2186 41.9494 37.5487 41.4833L37.6008 41.4098L37.6163 41.3209L40.7765 23.229L40.8584 22.7602H40.3825H22.6065C22.2935 22.7602 21.9934 22.6358 21.7721 22.4145C21.5508 22.1932 21.4264 21.8931 21.4264 21.5801C21.4264 21.2671 21.5508 20.9669 21.7721 20.7456C21.9934 20.5243 22.2935 20.4 22.6065 20.4H41.4803C42.0261 20.4235 42.5419 20.656 42.9208 21.049C43.077 21.2597 43.1914 21.4984 43.2576 21.7523C43.3251 22.011 43.3413 22.2803 43.3054 22.5451L43.0697 23.8807ZM42.9106 26.7104H42.5745L42.5166 27.0414L41.4105 33.3618L41.3284 33.8307H41.8045H48.5989H49.3909L48.9208 33.1933L44.2596 26.873L44.1397 26.7104H43.9376H42.9106ZM48.0459 43.3112H48.3868L48.4408 42.9746L49.4679 36.5753L49.5422 36.1119H49.0729H41.2515H40.9108L40.8566 36.4482L40.4616 38.8973L40.3868 39.361H40.8565H41.7251C42.8288 39.3623 43.9028 39.7195 44.7874 40.3797C45.672 41.0399 46.3201 41.9677 46.6355 43.0255L46.7207 43.3112H47.0188H48.0459ZM25.546 46.4501C26.0655 46.9696 26.7701 47.2614 27.5048 47.2614C28.2395 47.2614 28.9441 46.9696 29.4636 46.4501C29.983 45.9306 30.2749 45.226 30.2749 44.4913C30.2749 43.7566 29.983 43.052 29.4636 42.5325C28.9441 42.013 28.2395 41.7212 27.5048 41.7212C26.7701 41.7212 26.0655 42.013 25.546 42.5325C25.0265 43.052 24.7347 43.7566 24.7347 44.4913C24.7347 45.226 25.0265 45.9306 25.546 46.4501ZM39.7668 46.4501C40.2862 46.9696 40.9908 47.2614 41.7255 47.2614C42.4602 47.2614 43.1648 46.9696 43.6843 46.4501C44.2038 45.9306 44.4956 45.226 44.4956 44.4913C44.4956 43.7566 44.2038 43.052 43.6843 42.5325C43.1648 42.013 42.4602 41.7212 41.7255 41.7212C40.9908 41.7212 40.2862 42.013 39.7668 42.5325C39.2473 43.052 38.9554 43.7566 38.9554 44.4913C38.9554 45.226 39.2473 45.9306 39.7668 46.4501Z" fill="white" stroke="#96902D" stroke-width="0.8"/>
<path d="M27.5047 27.5004H19.6043C19.2913 27.5004 18.9912 27.3761 18.7699 27.1548C18.5486 26.9335 18.4242 26.6333 18.4242 26.3203C18.4242 26.0074 18.5486 25.7072 18.7699 25.4859C18.9912 25.2646 19.2913 25.1402 19.6043 25.1402H27.5047C27.8177 25.1402 28.1179 25.2646 28.3392 25.4859C28.5605 25.7072 28.6848 26.0074 28.6848 26.3203C28.6848 26.6333 28.5605 26.9335 28.3392 27.1548C28.1179 27.3761 27.8177 27.5004 27.5047 27.5004Z" fill="white" stroke="#96902D" stroke-width="0.8"/>
<path d="M27.5491 30.2261C27.7704 30.4474 27.8948 30.7476 27.8948 31.0606C27.8948 31.3736 27.7704 31.6737 27.5491 31.895C27.3278 32.1163 27.0277 32.2407 26.7147 32.2407H20.3944C20.0814 32.2407 19.7812 32.1163 19.5599 31.895C19.3386 31.6737 19.2143 31.3736 19.2143 31.0606C19.2143 30.7476 19.3386 30.4474 19.5599 30.2261C19.7812 30.0048 20.0814 29.8805 20.3944 29.8805H26.7147C27.0277 29.8805 27.3278 30.0048 27.5491 30.2261Z" fill="white" stroke="#96902D" stroke-width="0.8"/>
<path d="M20.3499 34.9664C20.5713 34.7451 20.8714 34.6207 21.1844 34.6207H25.9246C26.2376 34.6207 26.5378 34.7451 26.7591 34.9664C26.9804 35.1877 27.1047 35.4879 27.1047 35.8008C27.1047 36.1138 26.9804 36.414 26.7591 36.6353C26.5378 36.8566 26.2376 36.9809 25.9246 36.9809H21.1844C20.8714 36.9809 20.5713 36.8566 20.3499 36.6353C20.1286 36.414 20.0043 36.1138 20.0043 35.8008C20.0043 35.4879 20.1286 35.1877 20.3499 34.9664Z" fill="white" stroke="#96902D" stroke-width="0.8"/>
</svg>
