<svg width="22" height="22" viewBox="0 0 22 22" fill="none" xmlns="http://www.w3.org/2000/svg">
<g clip-path="url(#clip0_1_348)">
<path fill-rule="evenodd" clip-rule="evenodd" d="M15.4928 10.395L11.6043 6.50372C11.3355 6.2356 10.9003 6.2356 10.6322 6.50372C10.3634 6.77185 10.3634 7.21188 10.6322 7.48L13.4654 10.3125H6.1875C5.80731 10.3125 5.5 10.6219 5.5 11C5.5 11.3781 5.80731 11.6875 6.1875 11.6875H13.4654L10.6322 14.52C10.3634 14.7881 10.3634 15.2213 10.6322 15.4963C10.9003 15.7644 11.3355 15.7644 11.6043 15.4963L15.4928 11.605C15.6578 11.44 15.7094 11.2131 15.6716 11C15.7094 10.7869 15.6578 10.56 15.4928 10.395ZM11 22C4.92456 22 0 17.0775 0 11C0 4.9225 4.92456 0 11 0C17.0754 0 22 4.9225 22 11C22 17.0775 17.0754 22 11 22Z" fill="#96902D"/>
</g>
<defs>
<clipPath id="clip0_1_348">
<rect width="22" height="22" fill="white" transform="matrix(1 0 0 -1 0 22)"/>
</clipPath>
</defs>
</svg>
