<svg width="27" height="25" viewBox="0 0 27 25" fill="none" xmlns="http://www.w3.org/2000/svg">
<path d="M26.1467 0C25.6896 0 25.3239 0.322237 25.3239 0.72503V21.6702C25.3239 22.6369 24.4402 23.4694 23.4041 23.4694H3.56547C2.55982 23.4694 1.6456 22.6369 1.6456 21.6702V0.72503C1.6456 0.322237 1.27991 0 0.822803 0C0.365692 0 0 0.322237 0 0.72503V22.261C0 23.7648 1.40181 25 3.10836 25H23.8916C25.5982 25 27 23.7648 27 22.261V0.72503C27 0.34909 26.6038 0 26.1467 0Z" fill="#F1F4F6"/>
<path d="M22.7946 22.2072H4.20542C3.59594 22.2072 3.07788 21.7776 3.07788 21.2137V1.93335H23.9221V21.2405C23.9221 21.7776 23.4041 22.2072 22.7946 22.2072Z" fill="#34535F"/>
</svg>
