<svg width="27" height="27" viewBox="0 0 27 27" fill="none" xmlns="http://www.w3.org/2000/svg">
<g clip-path="url(#clip0_473_722)">
<path fill-rule="evenodd" clip-rule="evenodd" d="M25.1893 3.51255L18.9016 9.82296L22.7036 20.2812C22.8909 20.8803 22.7744 21.6228 22.5323 21.865C21.8446 22.5535 21.3544 22.2261 21.0937 21.9375L15.0145 13.7245L8.28473 20.4778L9.49636 24.975C9.01796 24.4958 6.22682 20.758 6.16017 20.6896C6.11545 20.6457 2.44345 17.9086 2.04773 17.5104L6.36013 18.6747L13.2173 11.9408L5.06245 5.90627C4.82873 5.69702 4.52077 5.07939 5.15021 4.44743C5.39321 4.20527 6.12727 4.13186 6.72464 4.32002L17.1374 8.09328L23.5102 1.83517C23.9557 1.38967 24.8273 1.43524 25.218 1.8259C25.6078 2.21656 25.6348 3.06789 25.1893 3.51255ZM26.3309 0.691904C25.2795 -0.362784 23.4317 -0.115581 22.3745 0.944169L16.9939 6.31211L7.01404 2.58275C6.05807 2.33553 5.09536 2.01574 3.90989 3.20459C3.30492 3.8104 2.04774 5.07097 3.90989 6.9365L10.7527 12.539L6.30024 16.9822L2.14561 15.9435C1.52967 15.7849 1.11456 15.9089 0.798151 16.2583C0.638682 16.4574 -0.518102 17.3146 0.288523 18.1229L5.11897 21.881L8.87704 26.7115C9.46092 27.297 10.0034 26.9317 10.7451 26.2272C11.2151 25.7563 11.1138 25.5142 10.9721 24.8282L10.0338 20.7023L14.4559 16.265L20.05 23.1095C21.9113 24.975 23.1693 23.7136 23.7743 23.1095C24.9606 21.9198 24.6417 20.9562 24.3944 19.9986L20.6963 10.0018L26.055 4.62461C27.1122 3.5657 27.383 1.74575 26.3309 0.691904Z" fill="#364651"/>
</g>
<defs>
<clipPath id="clip0_473_722">
<rect width="27" height="27" fill="white"/>
</clipPath>
</defs>
</svg>
