<svg width="27" height="29" viewBox="0 0 27 29" fill="none" xmlns="http://www.w3.org/2000/svg">
<path d="M26.1467 0C25.6896 0 25.3239 0.365692 25.3239 0.822803V24.5926C25.3239 25.6896 24.4402 26.6343 23.4041 26.6343H3.56547C2.55982 26.6343 1.6456 25.6896 1.6456 24.5926V0.822803C1.6456 0.365692 1.27991 0 0.822803 0C0.365692 0 0 0.365692 0 0.822803V25.263C0 26.9695 1.40181 28.3713 3.10836 28.3713H23.8916C25.5982 28.3713 27 26.9695 27 25.263V0.822803C27 0.396166 26.6038 0 26.1467 0Z" fill="#838E99"/>
<path d="M22.7946 25.202H4.20542C3.59594 25.202 3.07788 24.7144 3.07788 24.0744V2.19409H23.9221V24.1049C23.9221 24.7144 23.4041 25.202 22.7946 25.202Z" fill="#364651"/>
</svg>
