<svg width="29" height="25" viewBox="0 0 29 25" fill="none" xmlns="http://www.w3.org/2000/svg">
<path d="M20.9242 3.2397L20.8621 3.59184H21.2197H22.0086C22.2543 3.59377 22.4965 3.64972 22.7182 3.75572C22.9377 3.86071 23.1317 4.01224 23.2866 4.19975L28.6713 11.5955L27.2444 19.8977L27.2443 19.8977L27.2437 19.9017C27.1775 20.3209 26.9658 20.7035 26.6457 20.9822C26.3263 21.2604 25.9194 21.4175 25.4961 21.4261H24.1823H23.9597L23.8952 21.6393C23.6273 22.5245 23.0818 23.3 22.3391 23.8512C21.5964 24.4024 20.6961 24.7 19.7713 24.7C18.8464 24.7 17.9461 24.4024 17.2034 23.8512C16.4608 23.3 15.9152 22.5245 15.6473 21.6393L15.5829 21.4261H15.3602H12.3317H12.1091L12.0446 21.6393C11.7767 22.5245 11.2311 23.3 10.4885 23.8512C9.74581 24.4024 8.8455 24.7 7.92065 24.7C6.99579 24.7 6.09548 24.4024 5.35282 23.8512C4.61017 23.3 4.06458 22.5245 3.79673 21.6393L3.73224 21.4261H3.50958H1.86622C1.64582 21.4223 1.4288 21.3712 1.22976 21.2765C1.03004 21.1813 0.853095 21.0444 0.710918 20.875L0.711113 20.8748L0.702797 20.8657C0.548369 20.6963 0.433615 20.4946 0.366871 20.2753C0.300624 20.0576 0.283327 19.828 0.316193 19.6029L0.841698 16.7783C0.841726 16.7782 0.841754 16.778 0.841781 16.7779C0.891377 16.5163 1.04156 16.2847 1.26009 16.1327C1.47797 15.9811 1.74645 15.9208 2.00816 15.9645C2.26875 16.0145 2.49949 16.1644 2.65106 16.3823C2.80308 16.6009 2.86333 16.8703 2.81887 17.1328C2.81884 17.1329 2.81882 17.133 2.8188 17.1332L2.48974 19.0417L2.42923 19.3927H2.78538H3.50958H3.73224L3.79673 19.1796C4.06458 18.2943 4.61017 17.5188 5.35282 16.9676C6.09548 16.4164 6.99579 16.1188 7.92065 16.1188C8.8455 16.1188 9.74581 16.4164 10.4885 16.9676C11.2311 17.5188 11.7767 18.2943 12.0446 19.1796L12.1091 19.3927H12.3317H15.3602H15.5879L15.6491 19.1734C15.7783 18.7114 15.9861 18.275 16.2634 17.8835L16.3025 17.8283L16.3141 17.7617L18.9476 2.68509L19.009 2.33347H18.652H3.83877C3.56911 2.33347 3.3105 2.22635 3.11983 2.03568C2.92915 1.845 2.82203 1.58639 2.82203 1.31674C2.82203 1.04708 2.92915 0.78847 3.11983 0.597795C3.3105 0.40712 3.56911 0.3 3.83877 0.3H19.5676C20.032 0.319783 20.4708 0.51779 20.7929 0.852595C20.9262 1.03199 21.0238 1.23545 21.0803 1.45185C21.1377 1.67181 21.1514 1.90086 21.1208 2.12607L20.9242 3.2397ZM20.7588 5.62531H20.5068L20.4633 5.8736L19.5416 11.1405L19.48 11.4923H19.8371H25.4991H26.0931L25.7405 11.0142L21.8561 5.74725L21.7662 5.62531H21.6147H20.7588ZM25.0382 19.3927H25.2939L25.3344 19.1402L26.1903 13.8074L26.2461 13.4599H25.8941H19.3763H19.1208L19.0801 13.7121L18.7509 15.7531L18.6948 16.1008H19.0471H19.7709C20.6979 16.1019 21.5998 16.4019 22.3428 16.9564C23.0857 17.5108 23.63 18.29 23.8948 19.1784L23.9587 19.3927H24.1823H25.0382ZM6.31191 22.0181C6.73857 22.4448 7.31725 22.6845 7.92065 22.6845C8.52404 22.6845 9.10273 22.4448 9.52939 22.0181C9.95605 21.5915 10.1958 21.0128 10.1958 20.4094C10.1958 19.806 9.95606 19.2273 9.52939 18.8007C9.10273 18.374 8.52404 18.1343 7.92065 18.1343C7.31725 18.1343 6.73857 18.374 6.31191 18.8007C5.88524 19.2273 5.64554 19.806 5.64554 20.4094C5.64554 21.0128 5.88524 21.5915 6.31191 22.0181ZM18.1625 22.0181C18.5892 22.4448 19.1679 22.6845 19.7713 22.6845C20.3747 22.6845 20.9533 22.4448 21.38 22.0181C21.8067 21.5915 22.0464 21.0128 22.0464 20.4094C22.0464 19.806 21.8067 19.2273 21.38 18.8007C20.9533 18.374 20.3747 18.1343 19.7713 18.1343C19.1679 18.1343 18.5892 18.374 18.1625 18.8007C17.7359 19.2273 17.4962 19.806 17.4962 20.4094C17.4962 21.0128 17.7359 21.5915 18.1625 22.0181Z" fill="#364651" stroke="#F1F4F6" stroke-width="0.6"/>
<path d="M7.92068 6.28367H1.337C1.06734 6.28367 0.808734 6.17655 0.618059 5.98587C0.427384 5.7952 0.320264 5.53659 0.320264 5.26693C0.320264 4.99728 0.427384 4.73867 0.618059 4.54799C0.808734 4.35732 1.06734 4.2502 1.337 4.2502H7.92068C8.19034 4.2502 8.44895 4.35732 8.63962 4.54799C8.8303 4.73867 8.93742 4.99728 8.93742 5.26693C8.93742 5.53659 8.8303 5.7952 8.63962 5.98587C8.44895 6.17655 8.19034 6.28367 7.92068 6.28367Z" fill="#364651" stroke="#F1F4F6" stroke-width="0.6"/>
<path d="M7.98109 8.49819C8.17176 8.68886 8.27888 8.94747 8.27888 9.21713C8.27888 9.48678 8.17176 9.74539 7.98109 9.93607C7.79041 10.1267 7.5318 10.2339 7.26215 10.2339H1.9952C1.72555 10.2339 1.46694 10.1267 1.27626 9.93607C1.08559 9.74539 0.978467 9.48678 0.978467 9.21713C0.978467 8.94747 1.08559 8.68886 1.27626 8.49819C1.46694 8.30751 1.72555 8.20039 1.9952 8.20039H7.26215C7.5318 8.20039 7.79041 8.30751 7.98109 8.49819Z" fill="#364651" stroke="#F1F4F6" stroke-width="0.6"/>
<path d="M1.93471 12.4484C2.12538 12.2577 2.38399 12.1506 2.65365 12.1506H6.60386C6.87351 12.1506 7.13212 12.2577 7.3228 12.4484C7.51347 12.6391 7.62059 12.8977 7.62059 13.1673C7.62059 13.437 7.51347 13.6956 7.3228 13.8863C7.13212 14.0769 6.87351 14.1841 6.60386 14.1841H2.65365C2.38399 14.1841 2.12538 14.0769 1.93471 13.8863C1.74403 13.6956 1.63691 13.437 1.63691 13.1673C1.63691 12.8977 1.74403 12.6391 1.93471 12.4484Z" fill="#364651" stroke="#F1F4F6" stroke-width="0.6"/>
</svg>
