<svg width="27" height="27" viewBox="0 0 27 27" fill="none" xmlns="http://www.w3.org/2000/svg">
<g clip-path="url(#clip0_1_148)">
<path d="M25.2719 19.5611V19.6361H25.3469H26.1735C26.5885 19.6361 26.925 19.9726 26.925 20.3876V25.3468C26.925 25.7619 26.5885 26.0984 26.1735 26.0984H22.8673C22.4523 26.0984 22.1158 25.7619 22.1158 25.3468V24.5203V24.4453H22.0408H15.9796H15.9046V24.5203V25.3468C15.9046 25.7619 15.5681 26.0984 15.1531 26.0984H11.8469C11.4319 26.0984 11.0954 25.7619 11.0954 25.3468V24.5203V24.4453H11.0204H4.95918H4.88418V24.5203V25.3468C4.88418 25.7619 4.5477 26.0984 4.13265 26.0984H0.826531C0.411487 26.0984 0.075 25.7619 0.075 25.3468V20.3876C0.075 19.9726 0.411487 19.6361 0.826531 19.6361H1.65306H1.72806V19.5611V11.0203C1.72806 10.6052 2.06455 10.2688 2.47959 10.2688H7.16327H7.23827V10.1938V1.65295C7.23827 1.2379 7.57475 0.901416 7.9898 0.901416H19.0102C19.4252 0.901416 19.7617 1.2379 19.7617 1.65295V10.1938V10.2688H19.8367H24.5204C24.9355 10.2688 25.2719 10.6052 25.2719 11.0203V19.5611ZM23.7689 11.8468V11.7718H23.6939H14.3265H14.2515V11.8468V19.5611V19.6361H14.3265H23.6939H23.7689V19.5611V11.8468ZM8.81633 2.40448H8.74133V2.47948V10.1938V10.2688H8.81633H18.1837H18.2587V10.1938V2.47948V2.40448H18.1837H8.81633ZM3.30612 11.7718H3.23112V11.8468V19.5611V19.6361H3.30612H12.6735H12.7485V19.5611V11.8468V11.7718H12.6735H3.30612ZM25.3469 24.5953H25.4219V24.5203V21.2142V21.1392H25.3469H1.65306H1.57806V21.2142V24.5203V24.5953H1.65306H3.30612H3.38112V24.5203V23.6938C3.38112 23.2787 3.71761 22.9422 4.13265 22.9422H11.8469C12.262 22.9422 12.5985 23.2787 12.5985 23.6938V24.5203V24.5953H12.6735H14.3265H14.4015V24.5203V23.6938C14.4015 23.2787 14.738 22.9422 15.1531 22.9422H22.8673C23.2824 22.9422 23.6189 23.2787 23.6189 23.6938V24.5203V24.5953H23.6939H25.3469Z" fill="#364651" stroke="#F1F4F6" stroke-width="0.15"/>
</g>
<defs>
<clipPath id="clip0_1_148">
<rect width="27" height="27" fill="white"/>
</clipPath>
</defs>
</svg>
