<svg width="162" height="101" viewBox="0 0 162 101" fill="none" xmlns="http://www.w3.org/2000/svg">
<circle cx="4.37838" cy="4.37838" r="4.37838" fill="#E0E2E3" fill-opacity="0.2"/>
<circle cx="126.973" cy="4.37838" r="4.37838" fill="#E0E2E3" fill-opacity="0.2"/>
<circle cx="65.6755" cy="4.37838" r="4.37838" fill="#E0E2E3" fill-opacity="0.2"/>
<circle cx="35.0271" cy="4.37838" r="4.37838" fill="#E0E2E3" fill-opacity="0.2"/>
<circle cx="157.622" cy="4.37838" r="4.37838" fill="#E0E2E3" fill-opacity="0.2"/>
<circle cx="96.3244" cy="4.37838" r="4.37838" fill="#E0E2E3" fill-opacity="0.2"/>
<circle cx="4.37838" cy="65.6753" r="4.37838" fill="#E0E2E3" fill-opacity="0.2"/>
<circle cx="126.973" cy="65.6753" r="4.37838" fill="#E0E2E3" fill-opacity="0.2"/>
<circle cx="65.6755" cy="65.6753" r="4.37838" fill="#E0E2E3" fill-opacity="0.2"/>
<circle cx="35.0271" cy="65.6753" r="4.37838" fill="#E0E2E3" fill-opacity="0.2"/>
<circle cx="157.622" cy="65.6753" r="4.37838" fill="#E0E2E3" fill-opacity="0.2"/>
<circle cx="96.3244" cy="65.6753" r="4.37838" fill="#E0E2E3" fill-opacity="0.2"/>
<circle cx="4.37838" cy="35.0268" r="4.37838" fill="#E0E2E3" fill-opacity="0.2"/>
<circle cx="126.973" cy="35.0268" r="4.37838" fill="#E0E2E3" fill-opacity="0.2"/>
<circle cx="65.6755" cy="35.0268" r="4.37838" fill="#E0E2E3" fill-opacity="0.2"/>
<circle cx="35.0271" cy="35.0268" r="4.37838" fill="#E0E2E3" fill-opacity="0.2"/>
<circle cx="157.622" cy="35.0268" r="4.37838" fill="#E0E2E3" fill-opacity="0.2"/>
<circle cx="96.3244" cy="35.0268" r="4.37838" fill="#E0E2E3" fill-opacity="0.2"/>
<circle cx="4.37838" cy="96.3247" r="4.37838" fill="#E0E2E3" fill-opacity="0.2"/>
<circle cx="126.973" cy="96.3247" r="4.37838" fill="#E0E2E3" fill-opacity="0.2"/>
<circle cx="65.6755" cy="96.3247" r="4.37838" fill="#E0E2E3" fill-opacity="0.2"/>
<circle cx="35.0271" cy="96.3247" r="4.37838" fill="#E0E2E3" fill-opacity="0.2"/>
<circle cx="157.622" cy="96.3247" r="4.37838" fill="#E0E2E3" fill-opacity="0.2"/>
<circle cx="96.3244" cy="96.3247" r="4.37838" fill="#E0E2E3" fill-opacity="0.2"/>
</svg>
