<svg width="35" height="25" viewBox="0 0 35 25" fill="none" xmlns="http://www.w3.org/2000/svg">
<mask id="mask0_1_113" style="mask-type:luminance" maskUnits="userSpaceOnUse" x="0" y="0" width="35" height="25">
<path d="M32.5 0H2.5C1.11929 0 0 1.11929 0 2.5V22.5C0 23.8807 1.11929 25 2.5 25H32.5C33.8807 25 35 23.8807 35 22.5V2.5C35 1.11929 33.8807 0 32.5 0Z" fill="white"/>
</mask>
<g mask="url(#mask0_1_113)">
<path d="M35.0002 0H23.3335V25H35.0002V0Z" fill="#E3283E"/>
<path fill-rule="evenodd" clip-rule="evenodd" d="M0 25H11.6667V0H0V25Z" fill="#128A60"/>
<path d="M15.0001 11.6666C15.0001 11.2063 14.627 10.8333 14.1667 10.8333C13.7066 10.8333 13.3335 11.2063 13.3335 11.6666H15.0001ZM15.4114 15.2725C15.8095 15.5035 16.3195 15.368 16.5504 14.97C16.7814 14.5719 16.646 14.0619 16.2479 13.831L15.4114 15.2725ZM18.8447 13.7747C18.457 14.0227 18.3437 14.538 18.5916 14.9258C18.8396 15.3134 19.355 15.4268 19.7427 15.1788L18.8447 13.7747ZM21.6667 11.6666C21.6667 11.2063 21.2937 10.8333 20.8335 10.8333C20.3732 10.8333 20.0001 11.2063 20.0001 11.6666H21.6667ZM13.3335 11.6666C13.3335 13.2079 14.1709 14.5527 15.4114 15.2725L16.2479 13.831C15.5 13.397 15.0001 12.5897 15.0001 11.6666H13.3335ZM19.7427 15.1788C20.898 14.4399 21.6667 13.1433 21.6667 11.6666H20.0001C20.0001 12.5512 19.5412 13.3292 18.8447 13.7747L19.7427 15.1788Z" fill="#8C9157"/>
<path fill-rule="evenodd" clip-rule="evenodd" d="M17.5001 13.3333C18.4206 13.3333 19.1667 12.214 19.1667 10.8333C19.1667 9.45254 18.4206 8.33325 17.5001 8.33325C16.5796 8.33325 15.8335 9.45254 15.8335 10.8333C15.8335 12.214 16.5796 13.3333 17.5001 13.3333Z" fill="#C59262"/>
</g>
</svg>
