<svg width="104" height="120" viewBox="0 0 104 120" fill="none" xmlns="http://www.w3.org/2000/svg">
<path d="M101.891 28.4449L101.891 59.1117" stroke="#838E99"/>
<path d="M27.2214 28.8904L27.2214 59.5572" stroke="#838E99"/>
<path d="M1.75949 119.5L27.5307 59.611H101.574L75.8031 119.5H1.75949Z" fill="#EAEDEF" stroke="#838E99"/>
<path d="M1.22095 89.3353V119.78" stroke="#838E99"/>
<path d="M75.6675 89.3353V119.78" stroke="#838E99"/>
<path d="M1.75949 88.8341L27.5307 28.9449H101.574L75.8031 88.8341H1.75949Z" stroke="#838E99"/>
<path d="M26.3075 9.11612C25.8194 9.60427 25.8194 10.3957 26.3075 10.8839L34.2625 18.8388C34.7506 19.327 35.5421 19.327 36.0302 18.8388C36.5184 18.3507 36.5184 17.5592 36.0302 17.0711L28.9592 10L36.0302 2.92893C36.5184 2.44078 36.5184 1.64932 36.0302 1.16117C35.5421 0.67301 34.7506 0.67301 34.2625 1.16117L26.3075 9.11612ZM102.802 10.8839C103.29 10.3957 103.29 9.60427 102.802 9.11612L94.8466 1.16117C94.3585 0.67301 93.567 0.67301 93.0789 1.16117C92.5907 1.64932 92.5907 2.44078 93.0789 2.92893L100.15 10L93.0789 17.0711C92.5907 17.5592 92.5907 18.3507 93.0789 18.8388C93.567 19.327 94.3585 19.327 94.8466 18.8388L102.802 10.8839ZM27.1914 11.25L101.918 11.25V8.75L27.1914 8.75V11.25Z" fill="#1E1E1E"/>
</svg>
