<svg width="127" height="88" viewBox="0 0 127 88" fill="none" xmlns="http://www.w3.org/2000/svg">
<path d="M96.8694 1L96.8694 30.1408" stroke="#838E99"/>
<path d="M25.9182 1.42261L25.9182 30.5634" stroke="#838E99"/>
<path d="M1.75949 87.5L26.2269 30.6409H96.5317L72.0643 87.5H1.75949Z" fill="#EAEDEF" stroke="#838E99"/>
<path d="M1.21094 58.8599V87.7894" stroke="#838E99"/>
<path d="M71.9543 58.8599V87.7894" stroke="#838E99"/>
<path d="M1.75949 58.3591L26.2269 1.5H96.5317L72.0643 58.3591H1.75949Z" stroke="#838E99"/>
<path d="M118.03 0.7366C117.541 0.248445 116.75 0.248445 116.262 0.7366L108.307 8.69155C107.819 9.17971 107.819 9.97116 108.307 10.4593C108.795 10.9475 109.587 10.9475 110.075 10.4593L117.146 3.38825L124.217 10.4593C124.705 10.9475 125.496 10.9475 125.985 10.4593C126.473 9.97116 126.473 9.17971 125.985 8.69155L118.03 0.7366ZM116.262 30.3218C116.75 30.81 117.541 30.81 118.03 30.3218L125.985 22.3669C126.473 21.8787 126.473 21.0873 125.985 20.5991C125.496 20.111 124.705 20.111 124.217 20.5991L117.146 27.6702L110.075 20.5991C109.587 20.111 108.795 20.111 108.307 20.5991C107.819 21.0873 107.819 21.8787 108.307 22.3669L116.262 30.3218ZM115.896 1.62048V29.438H118.396V1.62048H115.896Z" fill="#1E1E1E"/>
</svg>
