<svg width="123" height="94" viewBox="0 0 123 94" fill="none" xmlns="http://www.w3.org/2000/svg">
<path d="M122.368 5.10559L122.368 34.8806" stroke="#838E99"/>
<path d="M49.8726 5.53943L49.8726 35.3144" stroke="#838E99"/>
<path d="M25.1694 93.5L50.1787 35.3816H122.037L97.028 93.5H25.1694Z" fill="#2A3841" stroke="#838E99"/>
<path d="M24.6292 64.2252V93.7844" stroke="#838E99"/>
<path d="M96.9109 64.2252V93.7844" stroke="#838E99"/>
<path d="M25.1694 63.724L50.1787 5.60559H122.037L97.028 63.724H25.1694Z" stroke="#838E99"/>
<path d="M32.4058 1.53886C32.1511 0.8972 31.4245 0.583489 30.7828 0.838169L20.3264 4.98842C19.6847 5.2431 19.371 5.96973 19.6257 6.61139C19.8804 7.25305 20.607 7.56676 21.2486 7.31208L30.5433 3.62297L34.2324 12.9176C34.4871 13.5593 35.2137 13.873 35.8554 13.6183C36.497 13.3636 36.8107 12.637 36.5561 11.9953L32.4058 1.53886ZM4.83817 60.9322C5.09285 61.5739 5.81948 61.8876 6.46114 61.6329L16.9176 57.4827C17.5593 57.228 17.873 56.5014 17.6183 55.8597C17.3636 55.2181 16.637 54.9043 15.9953 55.159L6.70069 58.8481L3.01158 49.5535C2.7569 48.9118 2.03027 48.5981 1.38861 48.8528C0.746948 49.1075 0.433238 49.8341 0.687918 50.4758L4.83817 60.9322ZM30.0964 1.50454L4.85239 59.9756L7.14761 60.9666L32.3916 2.49546L30.0964 1.50454Z" fill="#1E1E1E"/>
</svg>
