<svg width="27" height="37" viewBox="0 0 27 37" fill="none" xmlns="http://www.w3.org/2000/svg">
<g clip-path="url(#clip0_367_572)">
<path d="M15.1664 36.075C18.7734 31.4355 27 20.191 27 13.875C27 6.21484 20.9531 0 13.5 0C6.04688 0 0 6.21484 0 13.875C0 20.191 8.22656 31.4355 11.8336 36.075C12.6984 37.1807 14.3016 37.1807 15.1664 36.075ZM13.5 9.25C14.6935 9.25 15.8381 9.73727 16.682 10.6046C17.5259 11.472 18 12.6484 18 13.875C18 15.1016 17.5259 16.278 16.682 17.1454C15.8381 18.0127 14.6935 18.5 13.5 18.5C12.3065 18.5 11.1619 18.0127 10.318 17.1454C9.47411 16.278 9 15.1016 9 13.875C9 12.6484 9.47411 11.472 10.318 10.6046C11.1619 9.73727 12.3065 9.25 13.5 9.25Z" fill="#96902D"/>
</g>
<defs>
<clipPath id="clip0_367_572">
<rect width="27" height="37" fill="white"/>
</clipPath>
</defs>
</svg>
